<!DOCTYPE svg PUBLIC "-//W3C//DTD SVG 1.1//EN" "http://www.w3.org/Graphics/SVG/1.1/DTD/svg11.dtd">
<svg xmlns="http://www.w3.org/2000/svg" xmlns:xlink="http://www.w3.org/1999/xlink" version="1.1" width="569px" height="249px" viewBox="-0.5 -0.5 569 249" style="background-color: rgb(255, 255, 255);"><defs/><g><path d="M 85.86 212.86 L 34.14 161.14" fill="none" stroke="#000000" stroke-miterlimit="10" pointer-events="none"/><path d="M 100 207 L 100 87" fill="none" stroke="#000000" stroke-miterlimit="10" pointer-events="none"/><ellipse cx="100" cy="227" rx="20" ry="20" fill="#ffffff" stroke="#000000" pointer-events="none"/><path d="M 34.14 132.86 L 85.86 81.14" fill="none" stroke="#000000" stroke-miterlimit="10" pointer-events="none"/><ellipse cx="20" cy="147" rx="20" ry="20" fill="#ffffff" stroke="#000000" pointer-events="none"/><path d="M 85.86 52.86 L 40 7" fill="none" stroke="#000000" stroke-miterlimit="10" stroke-dasharray="3 3" pointer-events="none"/><path d="M 114.14 52.86 L 160 7" fill="none" stroke="#000000" stroke-miterlimit="10" stroke-dasharray="3 3" pointer-events="none"/><ellipse cx="100" cy="67" rx="20" ry="20" fill="#ffffff" stroke="#000000" pointer-events="none"/><path d="M 285.86 212.86 L 234.14 161.14" fill="none" stroke="#000000" stroke-miterlimit="10" pointer-events="none"/><path d="M 300 207 L 300 87" fill="none" stroke="#000000" stroke-miterlimit="10" pointer-events="none"/><ellipse cx="300" cy="227" rx="20" ry="20" fill="#e1d5e7" stroke="#9673a6" pointer-events="none"/><path d="M 234.14 132.86 L 285.86 81.14" fill="none" stroke="#000000" stroke-miterlimit="10" pointer-events="none"/><ellipse cx="220" cy="147" rx="20" ry="20" fill="#ffffff" stroke="#000000" pointer-events="none"/><path d="M 285.86 52.86 L 240 7" fill="none" stroke="#000000" stroke-miterlimit="10" stroke-dasharray="3 3" pointer-events="none"/><path d="M 314.14 52.86 L 360 7" fill="none" stroke="#000000" stroke-miterlimit="10" stroke-dasharray="3 3" pointer-events="none"/><ellipse cx="300" cy="67" rx="20" ry="20" fill="#ffffff" stroke="#000000" pointer-events="none"/><path d="M 485.86 212.86 L 438.64 165.64" fill="none" stroke="#000000" stroke-miterlimit="10" pointer-events="none"/><path d="M 434.93 161.93 L 442.36 164.41 L 438.64 165.64 L 437.41 169.36 Z" fill="#000000" stroke="#000000" stroke-miterlimit="10" pointer-events="none"/><path d="M 500 207 L 500 93.37" fill="none" stroke="#000000" stroke-miterlimit="10" pointer-events="none"/><path d="M 500 88.12 L 503.5 95.12 L 500 93.37 L 496.5 95.12 Z" fill="#000000" stroke="#000000" stroke-miterlimit="10" pointer-events="none"/><ellipse cx="500" cy="227" rx="20" ry="20" fill="#e1d5e7" stroke="#9673a6" pointer-events="none"/><path d="M 420 127 L 420 93.37" fill="none" stroke="#000000" stroke-miterlimit="10" stroke-dasharray="3 3" pointer-events="none"/><path d="M 420 88.12 L 423.5 95.12 L 420 93.37 L 416.5 95.12 Z" fill="#000000" stroke="#000000" stroke-miterlimit="10" pointer-events="none"/><ellipse cx="420" cy="147" rx="20" ry="20" fill="#ffffff" stroke="#000000" pointer-events="none"/><path d="M 485.86 52.86 L 444.5 11.5" fill="none" stroke="#000000" stroke-miterlimit="10" stroke-dasharray="3 3" pointer-events="none"/><path d="M 440.79 7.79 L 448.22 10.27 L 444.5 11.5 L 443.27 15.22 Z" fill="#000000" stroke="#000000" stroke-miterlimit="10" pointer-events="none"/><path d="M 514.14 52.86 L 555.5 11.5" fill="none" stroke="#000000" stroke-miterlimit="10" stroke-dasharray="3 3" pointer-events="none"/><path d="M 559.21 7.79 L 556.73 15.22 L 555.5 11.5 L 551.78 10.27 Z" fill="#000000" stroke="#000000" stroke-miterlimit="10" pointer-events="none"/><ellipse cx="500" cy="67" rx="20" ry="20" fill="#ffffff" stroke="#000000" pointer-events="none"/><ellipse cx="420" cy="67" rx="20" ry="20" fill="#ffffff" stroke="#000000" stroke-dasharray="3 3" pointer-events="none"/></g></svg>